<?xml version="1.0" encoding="utf-8"?>
<!-- Generator: Adobe Illustrator 27.0.0, SVG Export Plug-In . SVG Version: 6.00 Build 0)  -->
<svg version="1.1" id="레이어_1" xmlns="http://www.w3.org/2000/svg" xmlns:xlink="http://www.w3.org/1999/xlink" x="0px"
	 y="0px" viewBox="0 0 263.62 141.73" style="enable-background:new 0 0 263.62 141.73;" xml:space="preserve">
<style type="text/css">
	.st0{opacity:0.9;enable-background:new    ;}
	.st1{opacity:0.4;}
	.st2{fill:#58595B;}
	.st3{fill:#EA2126;stroke:#58595B;stroke-width:1.0126;stroke-miterlimit:10;}
	.st4{opacity:0.9;fill:#FF0000;enable-background:new    ;}
	.st5{opacity:0.8;}
	.st6{fill:#FFFFFF;}
	.st7{fill-rule:evenodd;clip-rule:evenodd;fill:#FF3300;}
</style>
<rect class="st0" width="263.62" height="141.73"/>
<g class="st1">
	<path class="st2" d="M38.28,99.52v16.13c9.92,0.33,21.66,0,35.17-1.53V97.99C59.94,99.53,48.2,99.87,38.28,99.52z"/>
	<path class="st3" d="M250.62,47.88V29.86c-12.03-1.68-25.75-1.83-39.81-1.06v16.15C226.35,44.2,240.55,44.83,250.62,47.88z"/>
	<path class="st2" d="M176.96,95.07c11.29-1.54,22.89-2.76,33.84-3.3V75.64c-10.94,0.54-22.55,1.75-33.84,3.28L176.96,95.07
		L176.96,95.07z"/>
	<path class="st3" d="M176.96,48.24v15.24c11.29-1.53,22.89-2.76,33.84-3.28V44.96C199.87,45.49,188.25,46.71,176.96,48.24z"/>
	<path class="st3" d="M109.94,91.52c-0.89,0.21-1.78,0.41-2.66,0.62v16.13c0.88-0.21,1.76-0.4,2.66-0.62c0,0,13.49-3.3,32.51-6.91
		V84.61C123.42,88.23,109.94,91.52,109.94,91.52z"/>
	<path class="st3" d="M142.46,84.61c10.3-1.96,22.21-4.01,34.51-5.68V63.49c-12.29,1.67-24.21,3.72-34.51,5.68V84.61z"/>
	<path class="st2" d="M73.44,82.55v15.44c10.26-1.17,21.55-3.05,33.84-5.86V76.69C95,79.5,83.72,81.37,73.44,82.55z"/>
	<path class="st2" d="M109.94,76.08c0,0,13.49-3.3,32.51-6.91V53.92c-19.02,3.61-32.51,6.91-32.51,6.91
		c-0.89,0.21-1.78,0.41-2.66,0.62V76.7C108.18,76.49,109.04,76.29,109.94,76.08z"/>
	<path class="st2" d="M73.44,82.55V67.29c-13.52,1.54-25.24,1.88-35.17,1.53v15.24C48.2,84.42,59.94,84.09,73.44,82.55z"/>
	<path class="st2" d="M142.46,100.73v14.6c12.51-2.32,24.03-3.92,34.51-4.96V95.07C164.67,96.74,152.75,98.79,142.46,100.73z"/>
	<path class="st3" d="M73.44,114.12v14.38c16.62-1.77,29.86-4.18,29.86-4.18c1.34-0.36,2.66-0.72,3.98-1.06v-15
		C95,111.08,83.72,112.95,73.44,114.12z"/>
	<path class="st2" d="M210.81,91.77v16.84c25.93-0.01,39.81,3.38,39.81,3.38V94.71C240.55,91.65,226.35,91.03,210.81,91.77z"/>
	<path class="st2" d="M210.81,60.21v15.44c15.54-0.76,29.74-0.12,39.81,2.94V63.13C240.55,60.07,226.35,59.45,210.81,60.21z"/>
	<path class="st2" d="M107.28,61.45V45.87c-11.43,2.62-22.95,4.36-33.84,5.5v15.93C83.72,66.14,95,64.25,107.28,61.45z"/>
	<path class="st2" d="M176.96,48.24V32.17c-12.41,1.71-24.24,3.78-34.51,5.81v15.95C152.75,51.96,164.67,49.92,176.96,48.24z"/>
	<path class="st2" d="M38.28,84.08c-11.17-0.37-20.03-1.59-26.54-2.87v15.44c6.51,1.27,15.37,2.5,26.54,2.88V84.08z"/>
	<path class="st2" d="M38.28,53.37c-16.02,0.18-26.54-0.68-26.54-0.68v13.27c6.51,1.28,15.37,2.5,26.54,2.88V53.37z"/>
</g>
<g>
	<path class="st4" d="M94.23,135.04c-2.82-0.1-4.93-1.28-6.29-3.53c-1.03-1.71-1.23-3.43-1.23-3.5v-9.05v-0.03
		c-0.07-0.92,0.13-1.64,0.6-2.14c0.66-0.69,1.61-0.69,1.62-0.69h0.01c0.63,0.03,1.12,0.25,1.48,0.65c0.68,0.76,0.61,1.94,0.6,2.07
		v0.01v7.14c0,1.92,0.53,3.35,1.55,4.12c0.78,0.61,1.59,0.63,1.75,0.63h0.03h0.03c3.14-0.25,3.06-4.72,3.06-4.76v-22.95l-0.01-0.06
		c-1.5-6.67-4.92-11.46-10.2-14.19c-4.11-2.14-8.02-2.3-9.13-2.3c-0.15,0-0.25,0-0.27,0c-7.2,0.4-12.57,3.5-15.95,9.25
		c-2.42,4.11-2.88,8.14-2.94,8.58v0.03v21.77c-0.04,1.77,0.34,3.06,1.13,3.85c0.73,0.72,1.59,0.79,1.93,0.79c0.06,0,0.08,0,0.11,0
		h0.03h0.03c2.8-0.48,3.16-3.3,2.94-4.87c0,0,0-16.29,0-18.51c0-1.02,0.07-2.04,0.2-3.05c0.49-3.79,2.21-7.12,4.85-9.38
		c0.91-0.77,2.07-1.41,3.52-1.93c0.77-0.28,1.66-0.48,2.57-0.59c0.49-0.06,1.01-0.1,1.52-0.1c2.56,0,5.31,0.76,7.56,2.05
		c2.12,1.24,3.83,3.17,4.78,5.41c1.16,2.72,1.38,5.85,0.6,8.36c-0.15,0.48-0.35,0.99-0.59,1.5c-0.14,0.29-0.28,0.59-0.43,0.88
		c-0.53,0.99-1.17,1.94-2,2.92c-0.34,0.41-0.71,0.79-1.1,1.14c-1.33,1.21-3.09,2.08-5.24,2.58c-0.59,0.14-1.17,0.25-1.73,0.32
		c-0.52,0.06-1.02,0.1-1.51,0.1h-0.08c-0.35,0-0.71-0.01-1.05-0.04c-0.24-0.01-0.46-0.06-0.67-0.08h-0.04
		c-0.11-0.01-0.21-0.04-0.31-0.06c-4.37-1.06-3.84-3.59-3.82-3.7c0.13-0.55,0.34-0.98,0.63-1.25c0.35-0.34,0.91-0.55,1.47-0.55
		c0.08,0,0.17,0,0.25,0.01c0.45,0.06,0.78,0.15,1.08,0.3c0.17,0.08,0.34,0.21,0.49,0.3c0.15,0.11,0.32,0.21,0.49,0.3
		c0.5,0.26,1.03,0.4,1.69,0.4c0.39,0,0.8-0.04,1.13-0.08c0.49-0.07,1.02-0.18,1.54-0.33c1.52-0.46,2.91-1.46,3.97-2.92
		c0.29-0.4,0.56-0.81,0.77-1.21c0.84-1.6,1.13-3.36,0.82-4.95c-0.28-1.38-0.74-2.47-1.41-3.35c-0.55-0.7-1.27-1.37-2.32-2.04
		c-0.74-0.48-1.58-0.83-2.15-1.03c-0.84-0.29-1.72-0.44-2.63-0.44c-2.03,0-3.94,0.74-5.23,2.04c-1.57,1.59-2.49,3.39-2.74,5.39
		c-0.14,1.14-0.11,2.3-0.08,3.43c0.01,0.41,0.01,0.83,0.03,1.24c0,0.8,0,1.6-0.01,2.39v0.01c-0.01,0.88-0.01,1.78-0.01,2.66
		c0.01,0.94,0,1.89,0,2.8v0.03c-0.01,0.92-0.01,1.88,0,2.81c0,0.73,0,1.48,0,2.21v0.01c0,0.74-0.01,1.5,0,2.25c0,0.4,0,0.8,0,1.2
		v0.62c0.08,2.92-0.68,5.18-2.28,6.77c-2.26,2.25-5.35,2.28-5.49,2.28c-0.11,0-0.21,0-0.32,0c-2.22,0-4.01-0.68-5.34-2
		c-2.61-2.61-2.49-6.87-2.49-7.05c0-0.62,0-1.23,0-1.83c0-1.49,0-2.99,0-4.48c0-1.89,0-3.78,0-5.67c0-1.77,0-3.53,0-5.3
		c0-1.25-0.03-2.5,0.01-3.75c0.06-1.92,0.55-3.9,1.12-5.74c0.55-1.74,1.22-3.46,2.11-5.06c0.48-0.84,0.99-1.67,1.57-2.45
		c2.04-2.8,4.67-5.05,7.83-6.69c5.49-2.85,10.79-2.94,11.38-2.94h0.06c11.67,0.55,17.58,6.22,20.49,10.88
		c1.03,1.65,1.86,3.43,2.49,5.27c0.42,1.24,0.74,2.51,0.95,3.79c0.14,0.85,0.18,1.78,0.14,2.65c-0.03,0.68,0,1.35,0,2.03
		c0,0.84-0.01,1.68-0.01,2.51c0,0.98,0,1.97,0,2.95c0,1.05,0.01,2.08,0,3.13c0,1.01,0,2.03,0,3.03c0,0.92,0,1.85,0,2.77
		c0,0.77,0,1.56,0,2.33c0,0.55,0,1.1,0,1.65c0,0.25,0,0.5,0,0.76c0,0.01,0,0.04,0,0.06c0.1,3.67-1.17,6.32-3.79,7.87
		C96.36,134.93,94.31,135.03,94.23,135.04z"/>
	<g class="st5">
		<path class="st6" d="M119.9,100.5c-0.13-0.33-0.25-0.52-0.38-0.59c-0.1-0.06-0.27-0.08-0.52-0.08h-6.65
			c-0.27,0-0.45,0.03-0.55,0.08c-0.11,0.07-0.21,0.28-0.32,0.59l-1.16,3.09h-2.85l6.35-16.45c0.18-0.47,0.39-0.81,0.64-1.03
			c0.32-0.29,0.74-0.44,1.24-0.44c0.45,0,0.84,0.15,1.16,0.44c0.25,0.23,0.46,0.59,0.64,1.03l6.35,16.45h-2.82L119.9,100.5z
			 M112.77,96.97c-0.07,0.19-0.08,0.33-0.03,0.41c0.04,0.07,0.13,0.1,0.27,0.1h5.38c0.13,0,0.2-0.03,0.21-0.1
			c0.03-0.08,0.01-0.22-0.06-0.41l-2.88-7.89L112.77,96.97z"/>
		<path class="st6" d="M128.67,97.15v6.56h-2.71V87.23c0-0.43,0.11-0.77,0.32-1.03c0.24-0.28,0.59-0.41,1.08-0.41h4.33
			c1.79,0,3.24,0.55,4.36,1.65c1.08,1.08,1.62,2.43,1.62,4.08c0,1.57-0.57,2.91-1.72,4c-1.15,1.09-2.54,1.64-4.19,1.64h-3.09V97.15z
			 M129.37,88.13c-0.32,0-0.52,0.04-0.59,0.14c-0.07,0.07-0.11,0.26-0.11,0.59v5.21c0,0.33,0.03,0.52,0.08,0.59
			c0.06,0.07,0.27,0.1,0.62,0.1h2.24c0.98,0,1.79-0.32,2.42-0.95c0.62-0.62,0.91-1.39,0.91-2.32c0-0.94-0.27-1.71-0.78-2.3
			c-0.63-0.72-1.52-1.06-2.68-1.06H129.37z"/>
	</g>
	<g class="st5">
		<path class="st6" d="M109.92,122.84c-0.68-0.32-1.37-0.81-2.04-1.49l1.55-1.67l0.15,0.1c0.7,0.5,1.23,0.83,1.59,0.99
			c0.57,0.26,1.22,0.4,1.96,0.4c0.96,0,1.75-0.32,2.35-0.94c0.59-0.59,0.88-1.32,0.88-2.19c0-0.66-0.25-1.2-0.74-1.64
			c-0.35-0.28-0.88-0.57-1.59-0.87l-0.85-0.34c-1.57-0.58-2.63-1.1-3.19-1.56c-0.98-0.8-1.47-1.88-1.47-3.23
			c0-1.13,0.43-2.1,1.29-2.92c0.96-0.91,2.21-1.37,3.76-1.37c0.94,0,1.82,0.18,2.63,0.52c0.55,0.23,1.16,0.61,1.86,1.12l-1.44,1.79
			l-0.13-0.08c-0.55-0.39-0.99-0.63-1.31-0.77c-0.53-0.23-1.08-0.34-1.65-0.34c-0.74,0-1.33,0.19-1.78,0.59
			c-0.45,0.4-0.67,0.9-0.67,1.52c0,0.59,0.25,1.09,0.77,1.49c0.31,0.23,0.84,0.48,1.59,0.77l0.85,0.3c1.58,0.58,2.67,1.12,3.3,1.59
			c0.99,0.81,1.5,1.92,1.5,3.32c0,1.53-0.53,2.8-1.57,3.83c-1.1,1.1-2.56,1.67-4.4,1.67C111.85,123.42,110.79,123.22,109.92,122.84z
			"/>
		<path class="st6" d="M127.2,108.73c-0.06,0.07-0.07,0.26-0.07,0.57v14.08h-2.6v-14.07c0-0.29-0.04-0.47-0.13-0.55
			c-0.08-0.08-0.28-0.12-0.56-0.12h-3.27v-2.41h10.52v2.41h-3.3C127.46,108.64,127.27,108.66,127.2,108.73z"/>
		<path class="st6" d="M143.61,120.32c-0.13-0.32-0.24-0.51-0.36-0.58c-0.08-0.06-0.25-0.07-0.49-0.07h-6.36
			c-0.25,0-0.43,0.03-0.52,0.07c-0.1,0.07-0.21,0.26-0.31,0.58l-1.1,2.95h-2.73l6.08-15.75c0.17-0.44,0.38-0.77,0.62-0.99
			c0.31-0.28,0.7-0.43,1.19-0.43c0.43,0,0.8,0.14,1.1,0.43c0.24,0.23,0.45,0.57,0.62,0.99l6.08,15.75h-2.7L143.61,120.32z
			 M136.77,116.94c-0.07,0.18-0.07,0.32-0.03,0.4c0.03,0.07,0.13,0.1,0.25,0.1h5.14c0.13,0,0.2-0.03,0.21-0.1
			c0.03-0.08,0.01-0.22-0.06-0.4l-2.75-7.56L136.77,116.94z"/>
		<path class="st6" d="M154.8,108.73c-0.06,0.07-0.07,0.26-0.07,0.57v14.08h-2.6v-14.07c0-0.29-0.04-0.47-0.13-0.55
			c-0.08-0.08-0.28-0.12-0.57-0.12h-3.27v-2.41h10.52v2.41h-3.3C155.07,108.64,154.87,108.66,154.8,108.73z"/>
		<path class="st6" d="M160.9,123.39v-17.15h2.6v17.15C163.5,123.39,160.9,123.39,160.9,123.39z"/>
		<path class="st6" d="M168.42,120.72c-1.3-1.63-1.96-3.61-1.96-5.96c0-2.36,0.66-4.34,1.96-5.96c1.43-1.78,3.35-2.68,5.77-2.68
			c2.4,0,4.32,0.9,5.77,2.68c1.33,1.63,1.98,3.61,1.98,5.96c0,2.36-0.66,4.33-1.98,5.96c-1.44,1.81-3.37,2.7-5.77,2.7
			C171.77,123.42,169.84,122.51,168.42,120.72z M170.35,110.37c-0.74,1.14-1.1,2.61-1.1,4.37c0,1.77,0.36,3.24,1.1,4.4
			c0.88,1.35,2.15,2.03,3.84,2.03c1.66,0,2.95-0.68,3.83-2.03c0.75-1.16,1.13-2.62,1.13-4.4c0-1.75-0.38-3.21-1.13-4.37
			c-0.89-1.35-2.17-2.04-3.83-2.04C172.51,108.35,171.23,109.02,170.35,110.37z"/>
		<path class="st6" d="M196.54,123.14c-0.22-0.17-0.48-0.47-0.77-0.9l-8.16-11.45v12.56h-2.63v-15.79c0-0.48,0.08-0.84,0.25-1.06
			c0.21-0.26,0.53-0.4,0.95-0.4c0.35,0,0.64,0.1,0.91,0.28c0.21,0.15,0.46,0.44,0.77,0.9l8.19,11.45v-12.49h2.63v15.75
			c0,0.44-0.1,0.8-0.31,1.05c-0.21,0.26-0.5,0.4-0.89,0.4C197.08,123.42,196.78,123.32,196.54,123.14z"/>
	</g>
	<g class="st5">
		<path class="st6" d="M108.25,133.32c-0.28-0.12-0.56-0.33-0.82-0.61l0.63-0.68l0.07,0.04c0.29,0.21,0.5,0.33,0.64,0.4
			c0.24,0.11,0.5,0.17,0.8,0.17c0.39,0,0.71-0.12,0.95-0.39c0.24-0.25,0.36-0.54,0.36-0.88c0-0.28-0.1-0.5-0.31-0.68
			c-0.14-0.11-0.36-0.23-0.66-0.36l-0.35-0.14c-0.64-0.23-1.08-0.44-1.3-0.63c-0.41-0.33-0.6-0.76-0.6-1.31
			c0-0.46,0.18-0.85,0.52-1.19c0.39-0.37,0.91-0.55,1.52-0.55c0.39,0,0.74,0.07,1.06,0.21c0.22,0.1,0.48,0.25,0.75,0.46l-0.59,0.73
			l-0.04-0.03c-0.22-0.15-0.41-0.26-0.53-0.32c-0.22-0.1-0.45-0.14-0.67-0.14c-0.31,0-0.55,0.08-0.73,0.23
			c-0.18,0.17-0.28,0.37-0.28,0.62c0,0.23,0.11,0.44,0.32,0.61c0.13,0.1,0.35,0.21,0.66,0.32l0.35,0.12
			c0.64,0.23,1.09,0.46,1.34,0.65c0.41,0.33,0.6,0.77,0.6,1.35c0,0.62-0.21,1.14-0.64,1.56c-0.45,0.46-1.05,0.68-1.79,0.68
			C109.03,133.55,108.59,133.47,108.25,133.32z"/>
		<path class="st6" d="M114.79,128.41c0.2-0.06,0.42-0.1,0.67-0.1c0.7,0,1.26,0.28,1.69,0.81c0.39,0.51,0.59,1.13,0.59,1.86
			c0,0.73-0.2,1.34-0.59,1.85c-0.43,0.55-0.99,0.83-1.69,0.83c-0.24,0-0.45-0.04-0.66-0.12c-0.18-0.07-0.35-0.17-0.49-0.28
			c-0.06-0.04-0.1-0.06-0.11-0.01c-0.01,0.01-0.03,0.07-0.03,0.14v2.28h-1.06v-7.28h1.06v0.29c0,0.04,0,0.06,0.01,0.07
			c0.03,0.01,0.06-0.01,0.11-0.06C114.44,128.56,114.61,128.46,114.79,128.41z M114.38,129.79c-0.2,0.32-0.29,0.72-0.29,1.2
			c0,0.48,0.1,0.88,0.29,1.2c0.24,0.37,0.57,0.57,1.01,0.57c0.45,0,0.77-0.19,1.01-0.57c0.21-0.32,0.31-0.72,0.31-1.2
			c0-0.48-0.1-0.88-0.31-1.2c-0.22-0.37-0.56-0.55-1.01-0.55C114.94,129.24,114.61,129.42,114.38,129.79z"/>
		<path class="st6" d="M119.93,131.36c-0.1,0-0.17,0-0.18,0.01c-0.01,0.01-0.03,0.07-0.01,0.15c0.06,0.34,0.2,0.62,0.43,0.81
			c0.25,0.22,0.56,0.32,0.95,0.32c0.27,0,0.5-0.04,0.71-0.11c0.22-0.08,0.42-0.21,0.61-0.37l0.11-0.1l0.17-0.12l0.61,0.54
			c-0.2,0.3-0.49,0.55-0.89,0.74c-0.42,0.22-0.87,0.33-1.33,0.33c-0.81,0-1.44-0.28-1.87-0.81c-0.39-0.48-0.59-1.09-0.59-1.82
			c0-0.73,0.21-1.35,0.64-1.85c0.45-0.54,1.03-0.8,1.78-0.8c0.7,0,1.27,0.26,1.71,0.8c0.41,0.48,0.62,1.06,0.62,1.71
			c0,0.18-0.04,0.3-0.14,0.4s-0.25,0.15-0.45,0.15h-2.88V131.36z M120.11,129.54c-0.21,0.21-0.32,0.48-0.38,0.84
			c-0.01,0.07-0.01,0.11,0.01,0.14c0.01,0.01,0.07,0.03,0.14,0.03h2.24c0.1,0,0.14-0.01,0.15-0.01c0.01-0.01,0.03-0.04,0.03-0.08
			v-0.01c-0.03-0.33-0.15-0.62-0.36-0.84c-0.24-0.26-0.52-0.39-0.88-0.39C120.66,129.18,120.34,129.31,120.11,129.54z"/>
		<path class="st6" d="M127.42,129.44c-0.14-0.1-0.25-0.15-0.32-0.18c-0.11-0.04-0.27-0.06-0.43-0.06c-0.45,0-0.8,0.18-1.03,0.55
			c-0.21,0.32-0.31,0.72-0.31,1.19s0.1,0.85,0.31,1.17c0.24,0.37,0.59,0.55,1.03,0.55c0.18,0,0.35-0.04,0.5-0.1
			c0.08-0.03,0.22-0.1,0.39-0.21l0.01-0.01l0.57,0.63c-0.2,0.21-0.39,0.34-0.59,0.43c-0.25,0.11-0.55,0.17-0.91,0.17
			c-0.78,0-1.38-0.28-1.82-0.81c-0.39-0.48-0.59-1.09-0.59-1.82c0-0.74,0.2-1.35,0.59-1.83c0.43-0.54,1.03-0.81,1.82-0.81
			c0.36,0,0.68,0.07,0.96,0.21c0.24,0.11,0.46,0.26,0.66,0.48l-0.62,0.62L127.42,129.44z"/>
		<path class="st6" d="M129.28,127.58c-0.11-0.11-0.18-0.26-0.18-0.43c0-0.18,0.06-0.32,0.18-0.44c0.11-0.11,0.25-0.17,0.43-0.17
			c0.17,0,0.31,0.06,0.43,0.17c0.11,0.11,0.18,0.26,0.18,0.44c0,0.17-0.06,0.32-0.18,0.43c-0.13,0.12-0.27,0.18-0.43,0.18
			C129.55,127.76,129.39,127.71,129.28,127.58z M129.21,133.54v-5.27h1.05v5.27H129.21z"/>
		<path class="st6" d="M135.1,133.07c0-0.04,0-0.06-0.01-0.07c-0.03-0.01-0.04,0-0.06,0.03c-0.17,0.18-0.38,0.32-0.6,0.43
			c-0.22,0.1-0.46,0.14-0.71,0.14c-0.73,0-1.31-0.28-1.75-0.81c-0.41-0.5-0.6-1.1-0.6-1.82c0-0.72,0.2-1.34,0.6-1.83
			c0.43-0.54,1.02-0.81,1.75-0.81c0.25,0,0.48,0.04,0.68,0.12c0.18,0.07,0.38,0.19,0.57,0.36c0.03,0.03,0.06,0.03,0.08-0.01
			c0.03-0.01,0.04-0.06,0.04-0.1v-0.36h0.95v5.24h-0.95L135.1,133.07L135.1,133.07z M132.71,129.75c-0.2,0.32-0.28,0.72-0.28,1.19
			s0.1,0.87,0.28,1.17c0.24,0.37,0.56,0.55,1.01,0.55c0.43,0,0.77-0.18,1.01-0.55c0.21-0.32,0.31-0.7,0.31-1.17
			c0-0.48-0.1-0.87-0.31-1.19c-0.22-0.36-0.56-0.55-1.01-0.55C133.26,129.21,132.93,129.39,132.71,129.75z"/>
		<path class="st6" d="M137.5,133.55v-7.52h1.03v7.52H137.5z"/>
		<path class="st6" d="M140.02,127.58c-0.13-0.11-0.18-0.26-0.18-0.43c0-0.18,0.06-0.32,0.18-0.44c0.11-0.11,0.25-0.17,0.43-0.17
			c0.17,0,0.31,0.06,0.43,0.17c0.11,0.11,0.18,0.26,0.18,0.44c0,0.17-0.06,0.32-0.18,0.43c-0.11,0.12-0.27,0.18-0.43,0.18
			C140.27,127.76,140.13,127.71,140.02,127.58z M139.93,133.54v-5.27h1.05v5.27H139.93z"/>
		<path class="st6" d="M142.67,133.29c-0.34-0.17-0.59-0.4-0.78-0.68l0.6-0.61l0.07,0.06c0.28,0.21,0.5,0.36,0.66,0.44
			c0.24,0.12,0.5,0.18,0.78,0.18c0.27,0,0.49-0.06,0.67-0.19c0.15-0.11,0.22-0.23,0.22-0.39c0-0.15-0.1-0.3-0.29-0.43
			c-0.11-0.07-0.27-0.17-0.49-0.26l-0.03-0.01l-0.32-0.14c-0.5-0.21-0.85-0.39-1.06-0.54c-0.35-0.26-0.53-0.58-0.53-0.95
			c0-0.47,0.2-0.84,0.59-1.13c0.35-0.23,0.77-0.36,1.24-0.36c0.39,0,0.77,0.08,1.1,0.25c0.29,0.15,0.55,0.36,0.78,0.63l-0.62,0.65
			c-0.24-0.21-0.42-0.36-0.57-0.44c-0.22-0.12-0.46-0.18-0.7-0.18s-0.42,0.04-0.56,0.12c-0.14,0.1-0.21,0.22-0.21,0.4
			c0,0.12,0.1,0.23,0.28,0.36c0.1,0.07,0.27,0.14,0.48,0.23l0.04,0.03l0.24,0.1c0.52,0.19,0.89,0.37,1.1,0.52
			c0.38,0.28,0.57,0.59,0.57,0.99c0,0.52-0.21,0.94-0.62,1.24c-0.36,0.26-0.8,0.39-1.33,0.39
			C143.48,133.58,143.05,133.48,142.67,133.29z"/>
		<path class="st6" d="M148.26,129.21c-0.01,0.01-0.01,0.06-0.01,0.12v4.21h-1.01v-4.21c0-0.07-0.01-0.12-0.03-0.12
			c-0.01-0.01-0.06-0.01-0.11-0.01h-0.55v-0.91h0.55c0.07,0,0.1-0.01,0.11-0.03c0.03-0.01,0.03-0.06,0.03-0.11v-1.34h1.01v1.34
			c0,0.06,0,0.1,0.01,0.11c0.01,0.01,0.06,0.03,0.11,0.03h0.56v0.91h-0.56C148.3,129.18,148.28,129.2,148.26,129.21z"/>
		<path class="st6" d="M150.25,133.29c-0.34-0.17-0.6-0.4-0.78-0.68l0.6-0.61l0.07,0.06c0.28,0.21,0.49,0.36,0.66,0.44
			c0.24,0.12,0.5,0.18,0.78,0.18c0.27,0,0.5-0.06,0.67-0.19c0.15-0.11,0.24-0.23,0.24-0.39c0-0.15-0.1-0.3-0.29-0.43
			c-0.1-0.07-0.27-0.17-0.49-0.26l-0.01-0.01l-0.32-0.14c-0.5-0.21-0.87-0.39-1.08-0.54c-0.35-0.26-0.53-0.58-0.53-0.95
			c0-0.47,0.2-0.84,0.59-1.13c0.35-0.23,0.77-0.36,1.24-0.36c0.41,0,0.77,0.08,1.1,0.25c0.29,0.15,0.55,0.36,0.78,0.63l-0.6,0.65
			c-0.24-0.21-0.42-0.36-0.57-0.44c-0.22-0.12-0.46-0.18-0.7-0.18c-0.22,0-0.42,0.04-0.56,0.12c-0.14,0.1-0.21,0.22-0.21,0.4
			c0,0.12,0.1,0.23,0.27,0.36c0.11,0.07,0.27,0.14,0.49,0.23l0.04,0.03l0.24,0.1c0.52,0.19,0.88,0.37,1.1,0.52
			c0.38,0.28,0.57,0.59,0.57,0.99c0,0.52-0.21,0.94-0.62,1.24c-0.35,0.26-0.8,0.39-1.33,0.39
			C151.06,133.58,150.62,133.48,150.25,133.29z"/>
		<path class="st6" d="M158.26,127.58c-0.13-0.11-0.18-0.26-0.18-0.43c0-0.18,0.06-0.32,0.18-0.44c0.11-0.11,0.25-0.17,0.43-0.17
			c0.17,0,0.31,0.06,0.43,0.17c0.13,0.11,0.18,0.26,0.18,0.44c0,0.17-0.06,0.32-0.18,0.43c-0.13,0.12-0.27,0.18-0.43,0.18
			C158.51,127.76,158.37,127.71,158.26,127.58z M158.17,133.54v-5.27h1.05v5.27H158.17z"/>
		<path class="st6" d="M163.76,130.27c0-0.37-0.11-0.66-0.35-0.87c-0.21-0.17-0.45-0.25-0.73-0.25c-0.31,0-0.55,0.08-0.74,0.25
			c-0.22,0.21-0.34,0.5-0.34,0.87v3.31h-1.06v-5.28h1.06v0.19l-0.01,0.06c0,0.07,0,0.11,0.01,0.11c0.01,0.03,0.07,0.01,0.15-0.06
			c0.15-0.12,0.35-0.22,0.56-0.29c0.2-0.06,0.39-0.08,0.6-0.08c0.49,0,0.89,0.15,1.24,0.44c0.42,0.36,0.63,0.87,0.63,1.54v3.35
			h-1.05v-3.3H163.76z"/>
		<path class="st6" d="M172.08,127.58c-0.01,0.03-0.03,0.1-0.03,0.23v5.72h-1.06v-5.72c0-0.11-0.01-0.19-0.06-0.22
			c-0.03-0.03-0.11-0.06-0.22-0.06h-1.33v-0.98h4.29v0.98h-1.34C172.19,127.54,172.11,127.55,172.08,127.58z"/>
		<path class="st6" d="M175.27,133.1c-0.45-0.36-0.66-0.9-0.66-1.6v-3.14h1.06v3.12c0,0.4,0.08,0.7,0.27,0.9
			c0.18,0.21,0.45,0.3,0.82,0.3c0.35,0,0.63-0.1,0.8-0.3c0.18-0.19,0.28-0.5,0.28-0.9v-3.12h1.05v3.14c0,0.7-0.22,1.24-0.67,1.6
			c-0.38,0.32-0.85,0.48-1.44,0.48C176.13,133.58,175.64,133.43,175.27,133.1z"/>
		<path class="st6" d="M183.54,130.27c0-0.37-0.11-0.66-0.35-0.87c-0.21-0.17-0.45-0.25-0.73-0.25c-0.31,0-0.55,0.08-0.74,0.25
			c-0.22,0.21-0.34,0.5-0.34,0.87v3.31h-1.06v-5.28h1.06v0.19l-0.01,0.06c0,0.07,0,0.11,0.01,0.11c0.01,0.03,0.07,0.01,0.15-0.06
			c0.15-0.12,0.35-0.22,0.56-0.29c0.2-0.06,0.41-0.08,0.6-0.08c0.49,0,0.89,0.15,1.24,0.44c0.42,0.36,0.63,0.87,0.63,1.54v3.35
			h-1.05v-3.3H183.54z"/>
		<path class="st6" d="M186.11,127.58c-0.13-0.11-0.18-0.26-0.18-0.43c0-0.18,0.06-0.32,0.18-0.44c0.11-0.11,0.25-0.17,0.43-0.17
			c0.17,0,0.31,0.06,0.43,0.17c0.13,0.11,0.18,0.26,0.18,0.44c0,0.17-0.06,0.32-0.18,0.43c-0.11,0.12-0.27,0.18-0.43,0.18
			C186.36,127.76,186.22,127.71,186.11,127.58z M186.03,133.54v-5.27h1.05v5.27H186.03z"/>
		<path class="st6" d="M191.62,130.27c0-0.37-0.11-0.66-0.35-0.87c-0.21-0.17-0.45-0.25-0.73-0.25c-0.31,0-0.55,0.08-0.74,0.25
			c-0.22,0.21-0.34,0.5-0.34,0.87v3.31h-1.06v-5.28h1.06v0.19l-0.01,0.06c0,0.07,0,0.11,0.01,0.11c0.01,0.03,0.07,0.01,0.15-0.06
			c0.15-0.12,0.35-0.22,0.56-0.29c0.2-0.06,0.41-0.08,0.6-0.08c0.49,0,0.89,0.15,1.24,0.44c0.42,0.36,0.63,0.87,0.63,1.54v3.35
			h-1.05v-3.3H191.62z"/>
		<path class="st6" d="M194.82,135.36c-0.38-0.18-0.67-0.41-0.87-0.69l0.57-0.66l0.27,0.18l0.39,0.28c0.15,0.08,0.29,0.14,0.43,0.18
			c0.18,0.06,0.36,0.08,0.57,0.08c0.45,0,0.8-0.15,1.02-0.47c0.2-0.26,0.28-0.58,0.28-0.98v-0.03c0-0.04-0.01-0.07-0.03-0.07
			c-0.01-0.01-0.04,0.01-0.08,0.06c-0.15,0.14-0.31,0.23-0.5,0.32c-0.18,0.07-0.39,0.11-0.61,0.11c-0.73,0-1.31-0.28-1.75-0.83
			c-0.41-0.51-0.62-1.13-0.62-1.85c0-0.73,0.21-1.35,0.62-1.86c0.43-0.54,1.02-0.81,1.75-0.81c0.2,0,0.39,0.03,0.59,0.1
			c0.18,0.07,0.35,0.17,0.49,0.28c0.06,0.06,0.11,0.06,0.13,0.01c0.01-0.01,0.03-0.07,0.03-0.14v-0.01v-0.22h1.05v4.81
			c0,0.77-0.22,1.38-0.67,1.83c-0.43,0.44-1.02,0.66-1.73,0.66C195.66,135.65,195.23,135.55,194.82,135.36z M195.25,129.79
			c-0.18,0.32-0.28,0.72-0.28,1.2s0.1,0.88,0.28,1.2c0.24,0.37,0.57,0.57,1.01,0.57c0.45,0,0.77-0.19,1.01-0.57
			c0.21-0.32,0.31-0.72,0.31-1.2c0-0.48-0.1-0.88-0.31-1.2c-0.22-0.37-0.56-0.55-1.01-0.55
			C195.83,129.24,195.49,129.42,195.25,129.79z"/>
		<path class="st6" d="M207.81,132.52c-0.31,0.36-0.66,0.62-1.03,0.8c-0.35,0.17-0.71,0.25-1.1,0.25c-0.63,0-1.15-0.18-1.57-0.55
			c-0.45-0.39-0.68-0.88-0.68-1.52c0-0.54,0.14-0.99,0.39-1.35c0.22-0.28,0.59-0.58,1.1-0.88c-0.21-0.22-0.38-0.43-0.49-0.62
			c-0.14-0.23-0.22-0.47-0.22-0.68c0-0.51,0.18-0.9,0.53-1.16c0.32-0.22,0.74-0.32,1.27-0.32c0.43,0,0.81,0.12,1.12,0.36
			c0.34,0.25,0.5,0.55,0.5,0.94c0,0.39-0.13,0.73-0.38,1.05c-0.18,0.22-0.46,0.43-0.82,0.65l1.38,1.59c0.14-0.19,0.28-0.4,0.41-0.62
			c0.13-0.19,0.25-0.44,0.41-0.72l0.78,0.43c-0.15,0.33-0.31,0.61-0.43,0.84c-0.18,0.29-0.35,0.55-0.53,0.77l1.12,1.25l-0.7,0.66
			L207.81,132.52z M204.7,130.64c-0.14,0.21-0.21,0.47-0.21,0.76c0,0.34,0.1,0.62,0.31,0.83c0.22,0.23,0.53,0.36,0.94,0.36
			c0.27,0,0.52-0.06,0.74-0.18c0.22-0.12,0.46-0.32,0.71-0.59l-1.65-1.86C205.14,130.17,204.86,130.41,204.7,130.64z M205.46,127.51
			c-0.13,0.11-0.2,0.26-0.2,0.46c0,0.1,0.06,0.22,0.15,0.37c0.07,0.08,0.17,0.21,0.32,0.36l0.11,0.11c0.24-0.15,0.41-0.29,0.53-0.4
			c0.17-0.17,0.27-0.32,0.27-0.47c0-0.18-0.07-0.33-0.22-0.44c-0.13-0.1-0.28-0.14-0.48-0.14
			C205.74,127.36,205.58,127.42,205.46,127.51z"/>
		<path class="st6" d="M216.48,127.58c-0.03,0.03-0.03,0.1-0.03,0.23v5.72h-1.06v-5.72c0-0.11-0.01-0.19-0.06-0.22
			c-0.03-0.03-0.11-0.06-0.24-0.06h-1.33v-0.98h4.29v0.98h-1.34C216.6,127.54,216.51,127.55,216.48,127.58z"/>
		<path class="st6" d="M220.5,128.49c0.21-0.12,0.48-0.19,0.81-0.22l0.24,0.95c-0.28,0.03-0.49,0.07-0.62,0.11
			c-0.18,0.06-0.32,0.12-0.43,0.22c-0.15,0.1-0.28,0.23-0.35,0.4c-0.08,0.19-0.14,0.41-0.14,0.69v2.94H219v-5.23h1.01v0.58
			C220.16,128.73,220.33,128.59,220.5,128.49z"/>
		<path class="st6" d="M225.91,133.07c0-0.04-0.01-0.06-0.03-0.07c-0.03-0.01-0.04,0-0.06,0.03c-0.18,0.18-0.38,0.32-0.6,0.43
			c-0.22,0.1-0.46,0.14-0.71,0.14c-0.73,0-1.31-0.28-1.75-0.81c-0.41-0.5-0.6-1.1-0.6-1.82c0-0.72,0.2-1.34,0.6-1.83
			c0.45-0.54,1.02-0.81,1.75-0.81c0.25,0,0.49,0.04,0.68,0.12c0.18,0.07,0.38,0.19,0.57,0.36c0.03,0.03,0.06,0.03,0.08-0.01
			c0.03-0.01,0.04-0.06,0.04-0.1v-0.36h0.94v5.24h-0.94v-0.5H225.91z M223.52,129.75c-0.2,0.32-0.28,0.72-0.28,1.19
			s0.1,0.87,0.28,1.17c0.22,0.37,0.56,0.55,1.01,0.55c0.43,0,0.77-0.18,1.01-0.55c0.2-0.32,0.31-0.7,0.31-1.17
			c0-0.48-0.1-0.87-0.31-1.19c-0.24-0.36-0.57-0.55-1.01-0.55C224.09,129.21,223.75,129.39,223.52,129.75z"/>
		<path class="st6" d="M231.64,128.67c0.01,0,0.01-0.03,0.01-0.06v-2.56h1.05v7.49h-1.05v-0.29c0-0.06-0.01-0.1-0.03-0.1
			c-0.01-0.01-0.04,0-0.08,0.06c-0.14,0.11-0.31,0.19-0.52,0.26c-0.2,0.06-0.42,0.1-0.66,0.1c-0.71,0-1.27-0.28-1.71-0.83
			c-0.39-0.51-0.59-1.12-0.59-1.85c0-0.73,0.2-1.35,0.59-1.85c0.43-0.55,1.01-0.81,1.71-0.81c0.22,0,0.45,0.04,0.66,0.11
			c0.18,0.08,0.34,0.18,0.49,0.3C231.58,128.64,231.62,128.67,231.64,128.67z M229.43,129.66c-0.2,0.32-0.28,0.72-0.28,1.2
			s0.1,0.88,0.28,1.2c0.22,0.37,0.57,0.57,1.01,0.57s0.77-0.19,1.01-0.57c0.21-0.32,0.31-0.72,0.31-1.2c0-0.48-0.1-0.88-0.31-1.2
			c-0.24-0.37-0.57-0.55-1.01-0.55S229.67,129.29,229.43,129.66z"/>
		<path class="st6" d="M235.19,131.36c-0.1,0-0.17,0-0.2,0.01c-0.01,0.01-0.03,0.07-0.01,0.15c0.06,0.34,0.2,0.62,0.45,0.81
			c0.24,0.22,0.56,0.32,0.95,0.32c0.27,0,0.5-0.04,0.71-0.11c0.22-0.08,0.42-0.21,0.62-0.37l0.1-0.1l0.17-0.12l0.62,0.54
			c-0.2,0.3-0.49,0.55-0.89,0.74c-0.42,0.22-0.87,0.33-1.33,0.33c-0.81,0-1.44-0.28-1.87-0.81c-0.39-0.48-0.59-1.09-0.59-1.82
			c0-0.73,0.21-1.35,0.64-1.85c0.45-0.54,1.03-0.8,1.78-0.8c0.7,0,1.27,0.26,1.71,0.8c0.41,0.48,0.6,1.06,0.6,1.71
			c0,0.18-0.04,0.3-0.14,0.4c-0.1,0.1-0.25,0.15-0.45,0.15h-2.85V131.36z M235.37,129.54c-0.2,0.21-0.34,0.48-0.38,0.84
			c-0.01,0.07-0.01,0.11,0.03,0.14c0.01,0.01,0.07,0.03,0.14,0.03h2.24c0.1,0,0.14-0.01,0.15-0.01c0.01-0.01,0.03-0.04,0.03-0.08
			v-0.01c-0.03-0.33-0.15-0.62-0.36-0.84c-0.22-0.26-0.52-0.39-0.88-0.39C235.91,129.18,235.59,129.31,235.37,129.54z"/>
		<path class="st6" d="M241.24,128.49c0.21-0.12,0.48-0.19,0.81-0.22l0.22,0.95c-0.28,0.03-0.49,0.07-0.62,0.11
			c-0.18,0.06-0.32,0.12-0.43,0.22c-0.15,0.1-0.28,0.23-0.35,0.4c-0.1,0.19-0.14,0.41-0.14,0.69v2.94h-1.01v-5.23h1.01v0.58
			C240.9,128.73,241.07,128.59,241.24,128.49z"/>
		<path class="st6" d="M243.5,133.29c-0.34-0.17-0.59-0.4-0.77-0.68l0.6-0.61l0.07,0.06c0.28,0.21,0.49,0.36,0.64,0.44
			c0.24,0.12,0.5,0.18,0.78,0.18s0.49-0.06,0.67-0.19c0.15-0.11,0.22-0.23,0.22-0.39c0-0.15-0.1-0.3-0.29-0.43
			c-0.1-0.07-0.27-0.17-0.49-0.26l-0.03-0.01l-0.32-0.14c-0.5-0.21-0.87-0.39-1.06-0.54c-0.35-0.26-0.53-0.58-0.53-0.95
			c0-0.47,0.2-0.84,0.59-1.13c0.35-0.23,0.77-0.36,1.24-0.36c0.41,0,0.77,0.08,1.1,0.25c0.28,0.15,0.55,0.36,0.77,0.63l-0.62,0.65
			c-0.22-0.21-0.42-0.36-0.57-0.44c-0.22-0.12-0.46-0.18-0.7-0.18s-0.42,0.04-0.56,0.12c-0.14,0.1-0.21,0.22-0.21,0.4
			c0,0.12,0.1,0.23,0.27,0.36c0.11,0.07,0.27,0.14,0.49,0.23l0.04,0.03l0.24,0.1c0.52,0.19,0.88,0.37,1.1,0.52
			c0.38,0.28,0.56,0.59,0.56,0.99c0,0.52-0.21,0.94-0.62,1.24c-0.36,0.26-0.8,0.39-1.33,0.39
			C244.33,133.58,243.88,133.48,243.5,133.29z"/>
	</g>
</g>
<g>
	<path class="st7" d="M140.63,41.7c4,0,7.53,0,11.5,0c-0.01-4.7,1.3-9.31-1.82-13.79c-4.19-6.04-7.99-12.31-11.84-18.56
		c-1.03-1.68-2.29-2.07-4.24-2.36c-7.17-1.05-11.8,1.24-14.87,7.79c-2.59,5.49-6.43,10.42-10.12,16.23c3.9,0,7.27,0,10.64,0
		c1.79,0,3.58,0,5.37,0c5.07,0,6.78,2.16,5.12,6.83c-0.22,0.63-1.66,1.19-2.56,1.21c-4.68,0.12-9.38,0.01-14.06,0.1
		c-1.15,0.01-2.28,0.47-3.41,0.72c0,0.37,0.01,0.74,0.01,1.13c1.06,0.29,2.11,0.79,3.19,0.84c2.67,0.12,5.37-0.04,8.04,0.08
		c5.24,0.25,8.46,3.3,8.86,8.26c0.45,5.45-2.17,9.18-7.44,10.05c-2.94,0.48-5.98,0.5-8.99,0.51c-7.59,0.07-15.18,0.03-23.66,0.03
		c2.63,3.52,4.82,6.62,7.24,9.53c0.45,0.54,1.86,0.5,2.82,0.5c20.32,0.03,40.65-0.01,60.97,0.07c2.18,0.01,3.23-0.92,4.61-2.37
		c4.95-5.17,5.34-10.07,0.29-15.42c-1.83-1.94-2.96-4.48-5.2-6.7c0,3.61,0.1,7.23-0.06,10.82c-0.04,1.14-0.6,3.19-1.15,3.25
		c-2.25,0.28-4.6,0.06-6.88-0.23c-0.32-0.04-0.6-1.49-0.63-2.29c-0.08-2.52-0.03-5.05-0.03-7.75c-4.1,0-7.7,0-11.73,0
		c0,2.72-0.1,5.24,0.03,7.76c0.11,2.01-0.56,3.03-2.81,2.85c-1.1-0.1-2.38,0.28-3.31-0.11c-0.95-0.4-2.25-1.46-2.26-2.26
		c-0.17-8.32-0.07-16.64-0.13-24.96c-0.01-1.78,0.7-2.56,2.56-2.43c0.78,0.06,1.58,0.08,2.35-0.01c2.68-0.34,3.9,0.54,3.63,3.31
		C140.45,36.63,140.63,38.98,140.63,41.7z"/>
	<path class="st7" d="M101.69,42.93c-2.08,3.28-3.8,5.98-5.76,9.07c1.17,0.18,1.97,0.4,2.78,0.4c6.36,0.03,12.73,0.08,19.09-0.04
		c1.2-0.03,2.39-0.84,3.59-1.3c-1.15-0.36-2.26-0.94-3.42-1.05c-1.89-0.18-3.79,0-5.69-0.06C107.49,49.78,103.42,48.49,101.69,42.93
		z"/>
</g>
</svg>
